<mxfile host="app.diagrams.net" modified="2023-10-27T16:08:36.835Z" agent="Mozilla/5.0 (Windows NT 10.0; Win64; x64) AppleWebKit/537.36 (KHTML, like Gecko) Chrome/118.0.0.0 Safari/537.36" etag="PW0FU7CSkHK-NVWuRc5I" version="22.0.8" type="device" pages="5">
  <diagram name="Page-1" id="mUv12LSPntKuywG2piie">
    <mxGraphModel dx="1434" dy="764" grid="1" gridSize="10" guides="1" tooltips="1" connect="1" arrows="1" fold="1" page="1" pageScale="1" pageWidth="850" pageHeight="1100" math="0" shadow="0">
      <root>
        <mxCell id="0" />
        <mxCell id="1" parent="0" />
        <mxCell id="-IjXKWjnCP9iymwjS4Q1-3" value="" style="edgeStyle=orthogonalEdgeStyle;rounded=0;orthogonalLoop=1;jettySize=auto;html=1;" parent="1" source="-IjXKWjnCP9iymwjS4Q1-1" target="-IjXKWjnCP9iymwjS4Q1-2" edge="1">
          <mxGeometry relative="1" as="geometry" />
        </mxCell>
        <mxCell id="-IjXKWjnCP9iymwjS4Q1-1" value="START" style="rounded=1;whiteSpace=wrap;html=1;" parent="1" vertex="1">
          <mxGeometry x="365" y="90" width="120" height="60" as="geometry" />
        </mxCell>
        <mxCell id="-IjXKWjnCP9iymwjS4Q1-5" value="" style="edgeStyle=orthogonalEdgeStyle;rounded=0;orthogonalLoop=1;jettySize=auto;html=1;" parent="1" source="-IjXKWjnCP9iymwjS4Q1-2" target="-IjXKWjnCP9iymwjS4Q1-4" edge="1">
          <mxGeometry relative="1" as="geometry" />
        </mxCell>
        <mxCell id="-IjXKWjnCP9iymwjS4Q1-2" value="Numbers[]&lt;br&gt;indx = 0;" style="shape=parallelogram;perimeter=parallelogramPerimeter;whiteSpace=wrap;html=1;fixedSize=1;" parent="1" vertex="1">
          <mxGeometry x="365" y="190" width="120" height="60" as="geometry" />
        </mxCell>
        <mxCell id="-IjXKWjnCP9iymwjS4Q1-7" value="" style="edgeStyle=orthogonalEdgeStyle;rounded=0;orthogonalLoop=1;jettySize=auto;html=1;" parent="1" source="-IjXKWjnCP9iymwjS4Q1-4" target="-IjXKWjnCP9iymwjS4Q1-6" edge="1">
          <mxGeometry relative="1" as="geometry" />
        </mxCell>
        <mxCell id="-IjXKWjnCP9iymwjS4Q1-8" value="true" style="edgeLabel;html=1;align=center;verticalAlign=middle;resizable=0;points=[];" parent="-IjXKWjnCP9iymwjS4Q1-7" vertex="1" connectable="0">
          <mxGeometry x="-0.32" y="-1" relative="1" as="geometry">
            <mxPoint as="offset" />
          </mxGeometry>
        </mxCell>
        <mxCell id="-IjXKWjnCP9iymwjS4Q1-20" style="edgeStyle=orthogonalEdgeStyle;rounded=0;orthogonalLoop=1;jettySize=auto;html=1;entryX=1;entryY=0.5;entryDx=0;entryDy=0;" parent="1" source="-IjXKWjnCP9iymwjS4Q1-4" target="-IjXKWjnCP9iymwjS4Q1-19" edge="1">
          <mxGeometry relative="1" as="geometry" />
        </mxCell>
        <mxCell id="-IjXKWjnCP9iymwjS4Q1-21" value="false" style="edgeLabel;html=1;align=center;verticalAlign=middle;resizable=0;points=[];" parent="-IjXKWjnCP9iymwjS4Q1-20" vertex="1" connectable="0">
          <mxGeometry x="-0.1724" y="2" relative="1" as="geometry">
            <mxPoint as="offset" />
          </mxGeometry>
        </mxCell>
        <mxCell id="-IjXKWjnCP9iymwjS4Q1-4" value="Numbers.Length &amp;gt; index" style="shape=hexagon;perimeter=hexagonPerimeter2;whiteSpace=wrap;html=1;fixedSize=1;" parent="1" vertex="1">
          <mxGeometry x="365" y="290" width="120" height="80" as="geometry" />
        </mxCell>
        <mxCell id="-IjXKWjnCP9iymwjS4Q1-11" value="" style="edgeStyle=orthogonalEdgeStyle;rounded=0;orthogonalLoop=1;jettySize=auto;html=1;" parent="1" source="-IjXKWjnCP9iymwjS4Q1-6" target="-IjXKWjnCP9iymwjS4Q1-9" edge="1">
          <mxGeometry relative="1" as="geometry" />
        </mxCell>
        <mxCell id="-IjXKWjnCP9iymwjS4Q1-12" value="false" style="edgeLabel;html=1;align=center;verticalAlign=middle;resizable=0;points=[];" parent="-IjXKWjnCP9iymwjS4Q1-11" vertex="1" connectable="0">
          <mxGeometry x="-0.04" y="2" relative="1" as="geometry">
            <mxPoint as="offset" />
          </mxGeometry>
        </mxCell>
        <mxCell id="-IjXKWjnCP9iymwjS4Q1-22" style="edgeStyle=orthogonalEdgeStyle;rounded=0;orthogonalLoop=1;jettySize=auto;html=1;entryX=0;entryY=0.5;entryDx=0;entryDy=0;" parent="1" source="-IjXKWjnCP9iymwjS4Q1-6" target="-IjXKWjnCP9iymwjS4Q1-13" edge="1">
          <mxGeometry relative="1" as="geometry" />
        </mxCell>
        <mxCell id="-IjXKWjnCP9iymwjS4Q1-23" value="true" style="edgeLabel;html=1;align=center;verticalAlign=middle;resizable=0;points=[];" parent="-IjXKWjnCP9iymwjS4Q1-22" vertex="1" connectable="0">
          <mxGeometry x="-0.2317" y="-3" relative="1" as="geometry">
            <mxPoint as="offset" />
          </mxGeometry>
        </mxCell>
        <mxCell id="-IjXKWjnCP9iymwjS4Q1-6" value="(Numbers[index]) % 2 == 0" style="rhombus;whiteSpace=wrap;html=1;" parent="1" vertex="1">
          <mxGeometry x="334" y="420" width="182" height="100" as="geometry" />
        </mxCell>
        <mxCell id="-IjXKWjnCP9iymwjS4Q1-17" style="edgeStyle=orthogonalEdgeStyle;rounded=0;orthogonalLoop=1;jettySize=auto;html=1;entryX=0.5;entryY=1;entryDx=0;entryDy=0;" parent="1" source="-IjXKWjnCP9iymwjS4Q1-9" target="-IjXKWjnCP9iymwjS4Q1-13" edge="1">
          <mxGeometry relative="1" as="geometry" />
        </mxCell>
        <mxCell id="-IjXKWjnCP9iymwjS4Q1-9" value="Numbers[index]" style="shape=document;whiteSpace=wrap;html=1;boundedLbl=1;" parent="1" vertex="1">
          <mxGeometry x="365" y="570" width="120" height="80" as="geometry" />
        </mxCell>
        <mxCell id="-IjXKWjnCP9iymwjS4Q1-14" style="edgeStyle=orthogonalEdgeStyle;rounded=0;orthogonalLoop=1;jettySize=auto;html=1;" parent="1" source="-IjXKWjnCP9iymwjS4Q1-13" edge="1">
          <mxGeometry relative="1" as="geometry">
            <mxPoint x="430" y="270" as="targetPoint" />
            <Array as="points">
              <mxPoint x="660" y="270" />
            </Array>
          </mxGeometry>
        </mxCell>
        <mxCell id="-IjXKWjnCP9iymwjS4Q1-13" value="index++;" style="rounded=0;whiteSpace=wrap;html=1;" parent="1" vertex="1">
          <mxGeometry x="600" y="440" width="120" height="60" as="geometry" />
        </mxCell>
        <mxCell id="-IjXKWjnCP9iymwjS4Q1-19" value="END" style="rounded=1;whiteSpace=wrap;html=1;" parent="1" vertex="1">
          <mxGeometry x="100" y="300" width="120" height="60" as="geometry" />
        </mxCell>
      </root>
    </mxGraphModel>
  </diagram>
  <diagram id="mxUBq74DE75vicpFdMgQ" name="Page-2">
    <mxGraphModel dx="1434" dy="764" grid="1" gridSize="10" guides="1" tooltips="1" connect="1" arrows="1" fold="1" page="1" pageScale="1" pageWidth="850" pageHeight="1100" math="0" shadow="0">
      <root>
        <mxCell id="0" />
        <mxCell id="1" parent="0" />
        <mxCell id="Oq2sAzQplu5GReBmS0lb-1" value="" style="edgeStyle=orthogonalEdgeStyle;rounded=0;orthogonalLoop=1;jettySize=auto;html=1;" parent="1" source="Oq2sAzQplu5GReBmS0lb-2" target="Oq2sAzQplu5GReBmS0lb-4" edge="1">
          <mxGeometry relative="1" as="geometry" />
        </mxCell>
        <mxCell id="Oq2sAzQplu5GReBmS0lb-2" value="START" style="rounded=1;whiteSpace=wrap;html=1;" parent="1" vertex="1">
          <mxGeometry x="365" y="90" width="120" height="60" as="geometry" />
        </mxCell>
        <mxCell id="Oq2sAzQplu5GReBmS0lb-3" value="" style="edgeStyle=orthogonalEdgeStyle;rounded=0;orthogonalLoop=1;jettySize=auto;html=1;" parent="1" source="Oq2sAzQplu5GReBmS0lb-4" target="Oq2sAzQplu5GReBmS0lb-9" edge="1">
          <mxGeometry relative="1" as="geometry" />
        </mxCell>
        <mxCell id="Oq2sAzQplu5GReBmS0lb-4" value="Numbers[]&lt;br&gt;index = 0&lt;br&gt;count;" style="shape=parallelogram;perimeter=parallelogramPerimeter;whiteSpace=wrap;html=1;fixedSize=1;" parent="1" vertex="1">
          <mxGeometry x="365" y="190" width="120" height="60" as="geometry" />
        </mxCell>
        <mxCell id="Oq2sAzQplu5GReBmS0lb-5" value="" style="edgeStyle=orthogonalEdgeStyle;rounded=0;orthogonalLoop=1;jettySize=auto;html=1;" parent="1" source="Oq2sAzQplu5GReBmS0lb-9" target="Oq2sAzQplu5GReBmS0lb-14" edge="1">
          <mxGeometry relative="1" as="geometry" />
        </mxCell>
        <mxCell id="Oq2sAzQplu5GReBmS0lb-6" value="true" style="edgeLabel;html=1;align=center;verticalAlign=middle;resizable=0;points=[];" parent="Oq2sAzQplu5GReBmS0lb-5" vertex="1" connectable="0">
          <mxGeometry x="-0.32" y="-1" relative="1" as="geometry">
            <mxPoint as="offset" />
          </mxGeometry>
        </mxCell>
        <mxCell id="Oq2sAzQplu5GReBmS0lb-7" style="edgeStyle=orthogonalEdgeStyle;rounded=0;orthogonalLoop=1;jettySize=auto;html=1;entryX=1;entryY=0.5;entryDx=0;entryDy=0;" parent="1" source="Oq2sAzQplu5GReBmS0lb-9" edge="1">
          <mxGeometry relative="1" as="geometry">
            <mxPoint x="190" y="330" as="targetPoint" />
          </mxGeometry>
        </mxCell>
        <mxCell id="Oq2sAzQplu5GReBmS0lb-8" value="false" style="edgeLabel;html=1;align=center;verticalAlign=middle;resizable=0;points=[];" parent="Oq2sAzQplu5GReBmS0lb-7" vertex="1" connectable="0">
          <mxGeometry x="-0.1724" y="2" relative="1" as="geometry">
            <mxPoint as="offset" />
          </mxGeometry>
        </mxCell>
        <mxCell id="Oq2sAzQplu5GReBmS0lb-9" value="Numbers.Length &amp;gt; index" style="shape=hexagon;perimeter=hexagonPerimeter2;whiteSpace=wrap;html=1;fixedSize=1;" parent="1" vertex="1">
          <mxGeometry x="353" y="290" width="145" height="80" as="geometry" />
        </mxCell>
        <mxCell id="Oq2sAzQplu5GReBmS0lb-10" value="" style="edgeStyle=orthogonalEdgeStyle;rounded=0;orthogonalLoop=1;jettySize=auto;html=1;" parent="1" source="Oq2sAzQplu5GReBmS0lb-14" edge="1">
          <mxGeometry relative="1" as="geometry">
            <mxPoint x="425" y="570" as="targetPoint" />
          </mxGeometry>
        </mxCell>
        <mxCell id="Oq2sAzQplu5GReBmS0lb-11" value="true" style="edgeLabel;html=1;align=center;verticalAlign=middle;resizable=0;points=[];" parent="Oq2sAzQplu5GReBmS0lb-10" vertex="1" connectable="0">
          <mxGeometry x="-0.04" y="2" relative="1" as="geometry">
            <mxPoint as="offset" />
          </mxGeometry>
        </mxCell>
        <mxCell id="Oq2sAzQplu5GReBmS0lb-32" style="edgeStyle=orthogonalEdgeStyle;rounded=0;orthogonalLoop=1;jettySize=auto;html=1;entryX=0;entryY=0.5;entryDx=0;entryDy=0;" parent="1" source="Oq2sAzQplu5GReBmS0lb-14" target="Oq2sAzQplu5GReBmS0lb-30" edge="1">
          <mxGeometry relative="1" as="geometry" />
        </mxCell>
        <mxCell id="Oq2sAzQplu5GReBmS0lb-34" value="false" style="edgeLabel;html=1;align=center;verticalAlign=middle;resizable=0;points=[];" parent="Oq2sAzQplu5GReBmS0lb-32" vertex="1" connectable="0">
          <mxGeometry y="-2" relative="1" as="geometry">
            <mxPoint as="offset" />
          </mxGeometry>
        </mxCell>
        <mxCell id="Oq2sAzQplu5GReBmS0lb-14" value="(Numbers[index]) &amp;lt; 0" style="rhombus;whiteSpace=wrap;html=1;" parent="1" vertex="1">
          <mxGeometry x="334" y="420" width="182" height="100" as="geometry" />
        </mxCell>
        <mxCell id="Oq2sAzQplu5GReBmS0lb-27" value="" style="edgeStyle=orthogonalEdgeStyle;rounded=0;orthogonalLoop=1;jettySize=auto;html=1;" parent="1" source="Oq2sAzQplu5GReBmS0lb-24" target="Oq2sAzQplu5GReBmS0lb-26" edge="1">
          <mxGeometry relative="1" as="geometry" />
        </mxCell>
        <mxCell id="Oq2sAzQplu5GReBmS0lb-24" value="count" style="shape=document;whiteSpace=wrap;html=1;boundedLbl=1;" parent="1" vertex="1">
          <mxGeometry x="70" y="300" width="120" height="80" as="geometry" />
        </mxCell>
        <mxCell id="Oq2sAzQplu5GReBmS0lb-26" value="END" style="rounded=1;whiteSpace=wrap;html=1;" parent="1" vertex="1">
          <mxGeometry x="70" y="440" width="120" height="60" as="geometry" />
        </mxCell>
        <mxCell id="Oq2sAzQplu5GReBmS0lb-31" style="edgeStyle=orthogonalEdgeStyle;rounded=0;orthogonalLoop=1;jettySize=auto;html=1;entryX=0.5;entryY=1;entryDx=0;entryDy=0;" parent="1" source="Oq2sAzQplu5GReBmS0lb-28" target="Oq2sAzQplu5GReBmS0lb-30" edge="1">
          <mxGeometry relative="1" as="geometry" />
        </mxCell>
        <mxCell id="Oq2sAzQplu5GReBmS0lb-28" value="count++;" style="rounded=0;whiteSpace=wrap;html=1;" parent="1" vertex="1">
          <mxGeometry x="360" y="570" width="120" height="60" as="geometry" />
        </mxCell>
        <mxCell id="Oq2sAzQplu5GReBmS0lb-33" style="edgeStyle=orthogonalEdgeStyle;rounded=0;orthogonalLoop=1;jettySize=auto;html=1;" parent="1" source="Oq2sAzQplu5GReBmS0lb-30" edge="1">
          <mxGeometry relative="1" as="geometry">
            <mxPoint x="430" y="270" as="targetPoint" />
            <Array as="points">
              <mxPoint x="660" y="270" />
            </Array>
          </mxGeometry>
        </mxCell>
        <mxCell id="Oq2sAzQplu5GReBmS0lb-30" value="index++" style="rounded=0;whiteSpace=wrap;html=1;" parent="1" vertex="1">
          <mxGeometry x="600" y="440" width="120" height="60" as="geometry" />
        </mxCell>
      </root>
    </mxGraphModel>
  </diagram>
  <diagram id="2UiC2xaM7qnNTwXv0NGT" name="Page-3">
    <mxGraphModel dx="1434" dy="764" grid="1" gridSize="10" guides="1" tooltips="1" connect="1" arrows="1" fold="1" page="1" pageScale="1" pageWidth="850" pageHeight="1100" math="0" shadow="0">
      <root>
        <mxCell id="0" />
        <mxCell id="1" parent="0" />
        <mxCell id="33yx4Xe1Uh-VGebE5jBf-1" value="" style="edgeStyle=orthogonalEdgeStyle;rounded=0;orthogonalLoop=1;jettySize=auto;html=1;" parent="1" source="33yx4Xe1Uh-VGebE5jBf-2" target="33yx4Xe1Uh-VGebE5jBf-4" edge="1">
          <mxGeometry relative="1" as="geometry" />
        </mxCell>
        <mxCell id="33yx4Xe1Uh-VGebE5jBf-2" value="START" style="rounded=1;whiteSpace=wrap;html=1;" parent="1" vertex="1">
          <mxGeometry x="365" y="90" width="120" height="60" as="geometry" />
        </mxCell>
        <mxCell id="33yx4Xe1Uh-VGebE5jBf-3" value="" style="edgeStyle=orthogonalEdgeStyle;rounded=0;orthogonalLoop=1;jettySize=auto;html=1;" parent="1" source="33yx4Xe1Uh-VGebE5jBf-4" target="33yx4Xe1Uh-VGebE5jBf-9" edge="1">
          <mxGeometry relative="1" as="geometry" />
        </mxCell>
        <mxCell id="33yx4Xe1Uh-VGebE5jBf-4" value="Numbers[]&lt;br&gt;index = 0&lt;br&gt;number;" style="shape=parallelogram;perimeter=parallelogramPerimeter;whiteSpace=wrap;html=1;fixedSize=1;" parent="1" vertex="1">
          <mxGeometry x="365" y="190" width="120" height="60" as="geometry" />
        </mxCell>
        <mxCell id="33yx4Xe1Uh-VGebE5jBf-5" value="" style="edgeStyle=orthogonalEdgeStyle;rounded=0;orthogonalLoop=1;jettySize=auto;html=1;" parent="1" source="33yx4Xe1Uh-VGebE5jBf-9" target="33yx4Xe1Uh-VGebE5jBf-14" edge="1">
          <mxGeometry relative="1" as="geometry" />
        </mxCell>
        <mxCell id="33yx4Xe1Uh-VGebE5jBf-6" value="true" style="edgeLabel;html=1;align=center;verticalAlign=middle;resizable=0;points=[];" parent="33yx4Xe1Uh-VGebE5jBf-5" vertex="1" connectable="0">
          <mxGeometry x="-0.32" y="-1" relative="1" as="geometry">
            <mxPoint as="offset" />
          </mxGeometry>
        </mxCell>
        <mxCell id="33yx4Xe1Uh-VGebE5jBf-28" style="edgeStyle=orthogonalEdgeStyle;rounded=0;orthogonalLoop=1;jettySize=auto;html=1;" parent="1" source="33yx4Xe1Uh-VGebE5jBf-9" target="33yx4Xe1Uh-VGebE5jBf-27" edge="1">
          <mxGeometry relative="1" as="geometry" />
        </mxCell>
        <mxCell id="33yx4Xe1Uh-VGebE5jBf-32" value="false" style="edgeLabel;html=1;align=center;verticalAlign=middle;resizable=0;points=[];" parent="33yx4Xe1Uh-VGebE5jBf-28" vertex="1" connectable="0">
          <mxGeometry x="0.1566" y="-2" relative="1" as="geometry">
            <mxPoint as="offset" />
          </mxGeometry>
        </mxCell>
        <mxCell id="33yx4Xe1Uh-VGebE5jBf-9" value="Numbers.Length &amp;gt; index" style="shape=hexagon;perimeter=hexagonPerimeter2;whiteSpace=wrap;html=1;fixedSize=1;" parent="1" vertex="1">
          <mxGeometry x="353" y="290" width="145" height="80" as="geometry" />
        </mxCell>
        <mxCell id="33yx4Xe1Uh-VGebE5jBf-10" value="" style="edgeStyle=orthogonalEdgeStyle;rounded=0;orthogonalLoop=1;jettySize=auto;html=1;entryX=0.5;entryY=0;entryDx=0;entryDy=0;" parent="1" source="33yx4Xe1Uh-VGebE5jBf-14" target="33yx4Xe1Uh-VGebE5jBf-22" edge="1">
          <mxGeometry relative="1" as="geometry">
            <mxPoint x="425" y="570" as="targetPoint" />
          </mxGeometry>
        </mxCell>
        <mxCell id="33yx4Xe1Uh-VGebE5jBf-11" value="true" style="edgeLabel;html=1;align=center;verticalAlign=middle;resizable=0;points=[];" parent="33yx4Xe1Uh-VGebE5jBf-10" vertex="1" connectable="0">
          <mxGeometry x="-0.04" y="2" relative="1" as="geometry">
            <mxPoint as="offset" />
          </mxGeometry>
        </mxCell>
        <mxCell id="33yx4Xe1Uh-VGebE5jBf-24" value="" style="edgeStyle=orthogonalEdgeStyle;rounded=0;orthogonalLoop=1;jettySize=auto;html=1;" parent="1" source="33yx4Xe1Uh-VGebE5jBf-14" target="33yx4Xe1Uh-VGebE5jBf-23" edge="1">
          <mxGeometry relative="1" as="geometry" />
        </mxCell>
        <mxCell id="33yx4Xe1Uh-VGebE5jBf-26" value="false" style="edgeLabel;html=1;align=center;verticalAlign=middle;resizable=0;points=[];" parent="33yx4Xe1Uh-VGebE5jBf-24" vertex="1" connectable="0">
          <mxGeometry x="-0.4062" y="-4" relative="1" as="geometry">
            <mxPoint as="offset" />
          </mxGeometry>
        </mxCell>
        <mxCell id="33yx4Xe1Uh-VGebE5jBf-14" value="Numbers[index] == number" style="rhombus;whiteSpace=wrap;html=1;" parent="1" vertex="1">
          <mxGeometry x="334" y="420" width="182" height="100" as="geometry" />
        </mxCell>
        <mxCell id="33yx4Xe1Uh-VGebE5jBf-31" style="edgeStyle=orthogonalEdgeStyle;rounded=0;orthogonalLoop=1;jettySize=auto;html=1;entryX=1;entryY=0.5;entryDx=0;entryDy=0;" parent="1" source="33yx4Xe1Uh-VGebE5jBf-22" target="33yx4Xe1Uh-VGebE5jBf-29" edge="1">
          <mxGeometry relative="1" as="geometry">
            <Array as="points">
              <mxPoint x="425" y="750" />
            </Array>
          </mxGeometry>
        </mxCell>
        <mxCell id="33yx4Xe1Uh-VGebE5jBf-22" value="index" style="shape=document;whiteSpace=wrap;html=1;boundedLbl=1;" parent="1" vertex="1">
          <mxGeometry x="365" y="600" width="120" height="80" as="geometry" />
        </mxCell>
        <mxCell id="33yx4Xe1Uh-VGebE5jBf-25" style="edgeStyle=orthogonalEdgeStyle;rounded=0;orthogonalLoop=1;jettySize=auto;html=1;" parent="1" source="33yx4Xe1Uh-VGebE5jBf-23" edge="1">
          <mxGeometry relative="1" as="geometry">
            <mxPoint x="430" y="270" as="targetPoint" />
            <Array as="points">
              <mxPoint x="640" y="270" />
            </Array>
          </mxGeometry>
        </mxCell>
        <mxCell id="33yx4Xe1Uh-VGebE5jBf-23" value="index++" style="rounded=0;whiteSpace=wrap;html=1;" parent="1" vertex="1">
          <mxGeometry x="580" y="440" width="120" height="60" as="geometry" />
        </mxCell>
        <mxCell id="33yx4Xe1Uh-VGebE5jBf-30" style="edgeStyle=orthogonalEdgeStyle;rounded=0;orthogonalLoop=1;jettySize=auto;html=1;entryX=0.5;entryY=0;entryDx=0;entryDy=0;" parent="1" source="33yx4Xe1Uh-VGebE5jBf-27" target="33yx4Xe1Uh-VGebE5jBf-29" edge="1">
          <mxGeometry relative="1" as="geometry" />
        </mxCell>
        <mxCell id="33yx4Xe1Uh-VGebE5jBf-27" value="-1" style="shape=document;whiteSpace=wrap;html=1;boundedLbl=1;" parent="1" vertex="1">
          <mxGeometry x="150" y="290" width="120" height="80" as="geometry" />
        </mxCell>
        <mxCell id="33yx4Xe1Uh-VGebE5jBf-29" value="END" style="rounded=1;whiteSpace=wrap;html=1;" parent="1" vertex="1">
          <mxGeometry x="150" y="720" width="120" height="60" as="geometry" />
        </mxCell>
      </root>
    </mxGraphModel>
  </diagram>
  <diagram id="PaORGm0ELqaERQGOQ2CN" name="Page-4">
    <mxGraphModel dx="1434" dy="764" grid="1" gridSize="10" guides="1" tooltips="1" connect="1" arrows="1" fold="1" page="1" pageScale="1" pageWidth="850" pageHeight="1100" math="0" shadow="0">
      <root>
        <mxCell id="0" />
        <mxCell id="1" parent="0" />
        <mxCell id="I6rT3q1AiPjeuBFyUkWH-1" value="" style="edgeStyle=orthogonalEdgeStyle;rounded=0;orthogonalLoop=1;jettySize=auto;html=1;" edge="1" parent="1" source="I6rT3q1AiPjeuBFyUkWH-2" target="I6rT3q1AiPjeuBFyUkWH-4">
          <mxGeometry relative="1" as="geometry" />
        </mxCell>
        <mxCell id="I6rT3q1AiPjeuBFyUkWH-2" value="START" style="rounded=1;whiteSpace=wrap;html=1;" vertex="1" parent="1">
          <mxGeometry x="365" y="90" width="120" height="60" as="geometry" />
        </mxCell>
        <mxCell id="I6rT3q1AiPjeuBFyUkWH-3" value="" style="edgeStyle=orthogonalEdgeStyle;rounded=0;orthogonalLoop=1;jettySize=auto;html=1;" edge="1" parent="1" source="I6rT3q1AiPjeuBFyUkWH-4" target="I6rT3q1AiPjeuBFyUkWH-9">
          <mxGeometry relative="1" as="geometry" />
        </mxCell>
        <mxCell id="I6rT3q1AiPjeuBFyUkWH-4" value="Numbers[]&lt;br&gt;i = 0&lt;br&gt;j= 0;" style="shape=parallelogram;perimeter=parallelogramPerimeter;whiteSpace=wrap;html=1;fixedSize=1;" vertex="1" parent="1">
          <mxGeometry x="365" y="190" width="120" height="60" as="geometry" />
        </mxCell>
        <mxCell id="I6rT3q1AiPjeuBFyUkWH-22" value="" style="edgeStyle=orthogonalEdgeStyle;rounded=0;orthogonalLoop=1;jettySize=auto;html=1;" edge="1" parent="1" source="I6rT3q1AiPjeuBFyUkWH-9">
          <mxGeometry relative="1" as="geometry">
            <mxPoint x="425.5" y="410" as="targetPoint" />
            <Array as="points">
              <mxPoint x="426" y="400" />
              <mxPoint x="426" y="400" />
            </Array>
          </mxGeometry>
        </mxCell>
        <mxCell id="I6rT3q1AiPjeuBFyUkWH-56" value="true" style="edgeLabel;html=1;align=center;verticalAlign=middle;resizable=0;points=[];" vertex="1" connectable="0" parent="I6rT3q1AiPjeuBFyUkWH-22">
          <mxGeometry x="-0.3326" y="-4" relative="1" as="geometry">
            <mxPoint as="offset" />
          </mxGeometry>
        </mxCell>
        <mxCell id="I6rT3q1AiPjeuBFyUkWH-24" value="" style="edgeStyle=orthogonalEdgeStyle;rounded=0;orthogonalLoop=1;jettySize=auto;html=1;" edge="1" parent="1" source="I6rT3q1AiPjeuBFyUkWH-9" target="I6rT3q1AiPjeuBFyUkWH-23">
          <mxGeometry relative="1" as="geometry" />
        </mxCell>
        <mxCell id="I6rT3q1AiPjeuBFyUkWH-57" value="false" style="edgeLabel;html=1;align=center;verticalAlign=middle;resizable=0;points=[];" vertex="1" connectable="0" parent="I6rT3q1AiPjeuBFyUkWH-24">
          <mxGeometry x="0.2118" y="-1" relative="1" as="geometry">
            <mxPoint as="offset" />
          </mxGeometry>
        </mxCell>
        <mxCell id="I6rT3q1AiPjeuBFyUkWH-9" value="Numbers.Length &amp;gt; i" style="shape=hexagon;perimeter=hexagonPerimeter2;whiteSpace=wrap;html=1;fixedSize=1;" vertex="1" parent="1">
          <mxGeometry x="365" y="290" width="120" height="80" as="geometry" />
        </mxCell>
        <mxCell id="I6rT3q1AiPjeuBFyUkWH-37" value="" style="edgeStyle=orthogonalEdgeStyle;rounded=0;orthogonalLoop=1;jettySize=auto;html=1;" edge="1" parent="1" source="I6rT3q1AiPjeuBFyUkWH-20" target="I6rT3q1AiPjeuBFyUkWH-36">
          <mxGeometry relative="1" as="geometry" />
        </mxCell>
        <mxCell id="I6rT3q1AiPjeuBFyUkWH-40" value="true" style="edgeLabel;html=1;align=center;verticalAlign=middle;resizable=0;points=[];" vertex="1" connectable="0" parent="I6rT3q1AiPjeuBFyUkWH-37">
          <mxGeometry x="-0.3778" y="-4" relative="1" as="geometry">
            <mxPoint as="offset" />
          </mxGeometry>
        </mxCell>
        <mxCell id="I6rT3q1AiPjeuBFyUkWH-59" value="" style="edgeStyle=orthogonalEdgeStyle;rounded=0;orthogonalLoop=1;jettySize=auto;html=1;" edge="1" parent="1" source="I6rT3q1AiPjeuBFyUkWH-20" target="I6rT3q1AiPjeuBFyUkWH-58">
          <mxGeometry relative="1" as="geometry" />
        </mxCell>
        <mxCell id="I6rT3q1AiPjeuBFyUkWH-60" value="false" style="edgeLabel;html=1;align=center;verticalAlign=middle;resizable=0;points=[];" vertex="1" connectable="0" parent="I6rT3q1AiPjeuBFyUkWH-59">
          <mxGeometry x="-0.1791" y="-4" relative="1" as="geometry">
            <mxPoint as="offset" />
          </mxGeometry>
        </mxCell>
        <mxCell id="I6rT3q1AiPjeuBFyUkWH-20" value="Numbers[i] == Numbers[j]" style="rhombus;whiteSpace=wrap;html=1;" vertex="1" parent="1">
          <mxGeometry x="304" y="630" width="242" height="105" as="geometry" />
        </mxCell>
        <mxCell id="I6rT3q1AiPjeuBFyUkWH-23" value="END" style="rounded=1;whiteSpace=wrap;html=1;" vertex="1" parent="1">
          <mxGeometry x="165" y="300" width="120" height="60" as="geometry" />
        </mxCell>
        <mxCell id="I6rT3q1AiPjeuBFyUkWH-28" value="" style="edgeStyle=orthogonalEdgeStyle;rounded=0;orthogonalLoop=1;jettySize=auto;html=1;" edge="1" parent="1" source="I6rT3q1AiPjeuBFyUkWH-26" target="I6rT3q1AiPjeuBFyUkWH-20">
          <mxGeometry relative="1" as="geometry" />
        </mxCell>
        <mxCell id="I6rT3q1AiPjeuBFyUkWH-46" value="true" style="edgeLabel;html=1;align=center;verticalAlign=middle;resizable=0;points=[];" vertex="1" connectable="0" parent="I6rT3q1AiPjeuBFyUkWH-28">
          <mxGeometry x="-0.3012" relative="1" as="geometry">
            <mxPoint as="offset" />
          </mxGeometry>
        </mxCell>
        <mxCell id="I6rT3q1AiPjeuBFyUkWH-62" style="edgeStyle=orthogonalEdgeStyle;rounded=0;orthogonalLoop=1;jettySize=auto;html=1;" edge="1" parent="1" source="I6rT3q1AiPjeuBFyUkWH-26">
          <mxGeometry relative="1" as="geometry">
            <mxPoint x="570" y="539.9999999999998" as="targetPoint" />
          </mxGeometry>
        </mxCell>
        <mxCell id="I6rT3q1AiPjeuBFyUkWH-63" value="false" style="edgeLabel;html=1;align=center;verticalAlign=middle;resizable=0;points=[];" vertex="1" connectable="0" parent="I6rT3q1AiPjeuBFyUkWH-62">
          <mxGeometry x="0.0795" y="-3" relative="1" as="geometry">
            <mxPoint as="offset" />
          </mxGeometry>
        </mxCell>
        <mxCell id="I6rT3q1AiPjeuBFyUkWH-26" value="Numbers.Length &amp;gt; j" style="shape=hexagon;perimeter=hexagonPerimeter2;whiteSpace=wrap;html=1;fixedSize=1;" vertex="1" parent="1">
          <mxGeometry x="365" y="500" width="120" height="80" as="geometry" />
        </mxCell>
        <mxCell id="I6rT3q1AiPjeuBFyUkWH-66" style="edgeStyle=orthogonalEdgeStyle;rounded=0;orthogonalLoop=1;jettySize=auto;html=1;entryX=0.5;entryY=1;entryDx=0;entryDy=0;" edge="1" parent="1" source="I6rT3q1AiPjeuBFyUkWH-36" target="I6rT3q1AiPjeuBFyUkWH-64">
          <mxGeometry relative="1" as="geometry" />
        </mxCell>
        <mxCell id="I6rT3q1AiPjeuBFyUkWH-36" value="Numbers[j]" style="shape=document;whiteSpace=wrap;html=1;boundedLbl=1;" vertex="1" parent="1">
          <mxGeometry x="365" y="770" width="120" height="80" as="geometry" />
        </mxCell>
        <mxCell id="I6rT3q1AiPjeuBFyUkWH-55" value="" style="edgeStyle=orthogonalEdgeStyle;rounded=0;orthogonalLoop=1;jettySize=auto;html=1;" edge="1" parent="1" source="I6rT3q1AiPjeuBFyUkWH-54" target="I6rT3q1AiPjeuBFyUkWH-26">
          <mxGeometry relative="1" as="geometry" />
        </mxCell>
        <mxCell id="I6rT3q1AiPjeuBFyUkWH-54" value="j = i + 1;" style="rounded=0;whiteSpace=wrap;html=1;" vertex="1" parent="1">
          <mxGeometry x="365" y="410" width="120" height="60" as="geometry" />
        </mxCell>
        <mxCell id="I6rT3q1AiPjeuBFyUkWH-61" style="edgeStyle=orthogonalEdgeStyle;rounded=0;orthogonalLoop=1;jettySize=auto;html=1;entryX=0;entryY=0.5;entryDx=0;entryDy=0;" edge="1" parent="1" source="I6rT3q1AiPjeuBFyUkWH-58" target="I6rT3q1AiPjeuBFyUkWH-26">
          <mxGeometry relative="1" as="geometry">
            <Array as="points">
              <mxPoint x="200" y="540" />
            </Array>
          </mxGeometry>
        </mxCell>
        <mxCell id="I6rT3q1AiPjeuBFyUkWH-58" value="j++" style="rounded=0;whiteSpace=wrap;html=1;" vertex="1" parent="1">
          <mxGeometry x="140" y="652.5" width="120" height="60" as="geometry" />
        </mxCell>
        <mxCell id="I6rT3q1AiPjeuBFyUkWH-65" style="edgeStyle=orthogonalEdgeStyle;rounded=0;orthogonalLoop=1;jettySize=auto;html=1;" edge="1" parent="1" source="I6rT3q1AiPjeuBFyUkWH-64">
          <mxGeometry relative="1" as="geometry">
            <mxPoint x="490" y="329.9999999999998" as="targetPoint" />
            <Array as="points">
              <mxPoint x="630" y="330" />
            </Array>
          </mxGeometry>
        </mxCell>
        <mxCell id="I6rT3q1AiPjeuBFyUkWH-64" value="i++" style="rounded=0;whiteSpace=wrap;html=1;" vertex="1" parent="1">
          <mxGeometry x="570" y="510" width="120" height="60" as="geometry" />
        </mxCell>
      </root>
    </mxGraphModel>
  </diagram>
  <diagram id="kmjFLqvB17LMt4ECFthR" name="Page-5">
    <mxGraphModel dx="1434" dy="764" grid="1" gridSize="10" guides="1" tooltips="1" connect="1" arrows="1" fold="1" page="1" pageScale="1" pageWidth="850" pageHeight="1100" math="0" shadow="0">
      <root>
        <mxCell id="0" />
        <mxCell id="1" parent="0" />
      </root>
    </mxGraphModel>
  </diagram>
</mxfile>
